<svg xmlns="http://www.w3.org/2000/svg" width="145.919" height="123.547" viewBox="0 0 145.919 123.547">
  <g id="accident" transform="translate(-7.919 -50.103)">
    <g id="XMLID_21_" transform="translate(7.919 50.103)">
      <g id="XMLID_1225_" transform="translate(89.004 89.424)">
        <path id="XMLID_1227_" d="M315.39,339.6a5.577,5.577,0,0,0,3.742-6.942l-2.853-9.527a5.577,5.577,0,0,0-6.942-3.742l-9.414,2.82-1.8,1.8,12.232,1.567-15.026,1.93L286.3,317.1a3.983,3.983,0,0,0-6.019,5.218l10.425,12.024a4.023,4.023,0,0,0,3.516,1.341h0l16.592-2.131-15.251,5.712a7.365,7.365,0,0,1-5.518-.641,11.178,11.178,0,0,1-3.405-3.132l-6.31,6.31,0,.005a10.042,10.042,0,0,0,11.594,4.7C300.508,343.989,313.455,340.184,315.39,339.6Z" transform="translate(-279.309 -315.73)" fill="#09213d"/>
      </g>
      <path id="XMLID_1218_" d="M85.222,181.128a7.788,7.788,0,0,1,3.893-7.535l-6.444-6.444,19.69-19.69,8.913,13.941-.117.117-13,13c.547.484.3.241,5.357,6.07l16.055-16.055a3.546,3.546,0,0,0,.48-4.412l-16.293-25.484L92.572,123.227a7.875,7.875,0,0,0-12.272-9.7l-3,3h0a18.787,18.787,0,0,1-26.569,26.569h0L29.876,163.95A18.787,18.787,0,0,1,3.307,190.519l-1,1a7.874,7.874,0,0,0,8.961,12.675l2.678,2.678a12.428,12.428,0,0,0,17.575,0l7.9-7.9,33.656,9.492a3.462,3.462,0,0,0,3.466-.9l15.9-15.9C86.946,185.317,85.534,184.331,85.222,181.128Zm-12.515,18.84L54.88,194.94l22.077-22.077,6.772,6.772-5.712,1.085L66.006,192.731l16.918-2.98Z" transform="translate(0 -86.964)" fill="#dd3e46"/>
      <path id="XMLID_1219_" d="M12.017,0A12.017,12.017,0,1,1,0,12.017,12.017,12.017,0,0,1,12.017,0Z" transform="translate(51.999 30.829)" fill="#394d5c"/>
      <circle id="XMLID_1220_" cx="12.017" cy="12.017" r="12.017" transform="translate(4.575 78.253)" fill="#394d5c"/>
      <circle id="XMLID_1221_" cx="8.255" cy="8.255" r="8.255" transform="translate(129.408 90.218)" fill="#ffb69e"/>
      <path id="XMLID_1222_" d="M9.544,62.691A8.31,8.31,0,0,0,13.6,61.643a8.6,8.6,0,0,0,8.2,6.557s0,0,0,0a5.452,5.452,0,1,0,7.9-4.864,8.562,8.562,0,0,0,.85-3.685,6.367,6.367,0,0,0-3.253-11.814A9.454,9.454,0,1,0,8.974,44.557,9.541,9.541,0,0,0,9.083,46a8.352,8.352,0,0,0,.461,16.691Z" transform="translate(-0.812 -35.103)" fill="#7d8d9c"/>
      <circle id="XMLID_1223_" cx="3.505" cy="3.505" r="3.505" transform="translate(29.299 41.332)" fill="#7d8d9c"/>
    </g>
  </g>
</svg>
