<svg xmlns="http://www.w3.org/2000/svg" xmlns:xlink="http://www.w3.org/1999/xlink" width="155.546" height="114.236" viewBox="0 0 155.546 114.236">
  <defs>
    <linearGradient id="linear-gradient" x1="0.5" x2="0.5" y2="1" gradientUnits="objectBoundingBox">
      <stop offset="0" stop-color="#f21717"/>
      <stop offset="0.163" stop-color="#f55326"/>
      <stop offset="1" stop-color="#fab03c"/>
    </linearGradient>
  </defs>
  <g id="burning-home" transform="translate(-7.499 -45.345)">
    <path id="Path_33" data-name="Path 33" d="M105.03,157.089v2.073a3.541,3.541,0,0,1-3.541,3.544H88.544A3.541,3.541,0,0,1,85,159.162V146.21a3.538,3.538,0,0,1,3.541-3.541h12.54a63.075,63.075,0,0,1-.722-7.713H88.545A3.538,3.538,0,0,1,85,131.415V118.464a3.541,3.541,0,0,1,3.541-3.543H101.49a3.452,3.452,0,0,1,1.644.457,46.634,46.634,0,0,1,4.685-9.953,6.86,6.86,0,0,1,1.823-1.9L83.462,80.937a3.544,3.544,0,0,0-4.625,0L37.042,117a3.55,3.55,0,0,0-1.226,2.682v52.131a3.536,3.536,0,0,0,3.541,3.541h78.481C112.517,171.051,108.105,164.613,105.03,157.089ZM77.3,159.162a3.544,3.544,0,0,1-3.544,3.544H60.807a3.541,3.541,0,0,1-3.54-3.544V146.21a3.538,3.538,0,0,1,3.54-3.541H73.752A3.541,3.541,0,0,1,77.3,146.21Zm0-27.746a3.541,3.541,0,0,1-3.544,3.541H60.807a3.538,3.538,0,0,1-3.54-3.541V118.464a3.54,3.54,0,0,1,3.54-3.543H73.752a3.543,3.543,0,0,1,3.544,3.543Z" transform="translate(-12.862 -15.777)" fill="#233952"/>
    <path id="Path_34" data-name="Path 34" d="M101.731,86.417a6.736,6.736,0,0,1,1.573.331,7.013,7.013,0,0,1,4.486,4.878l1.482,1.276a57.294,57.294,0,0,1,4.071-10.511L71.749,46.629a5.313,5.313,0,0,0-6.926,0L9.353,94.323a5.312,5.312,0,1,0,6.926,8.057L68.286,57.661Z" transform="translate(0 0)" fill="#233952"/>
    <path id="Path_35" data-name="Path 35" d="M232.875,118.736a6.348,6.348,0,0,0-2.137-.365c-5.671,0-11.794,7.069-16.114,13.782-.618-5.131-2.788-10.488-5.313-16.716l-1.15-2.851c-3.71-9.281-.736-19.672,2.933-25.752a1.772,1.772,0,0,0-1.9-2.643c-13.7,3.079-25.026,21.426-25.714,39.907a22.259,22.259,0,0,0-4.915-3.487c-3.436-1.961-5.509-3.143-4.851-9.374a1.771,1.771,0,0,0-3.26-1.129c-13.292,21.075-5.07,54.253,11.011,64.582a1.77,1.77,0,0,0,2.306-.341,2.419,2.419,0,0,0,.354-1.708c-.52-3.223-1.783-12.368-.611-19.045a10.517,10.517,0,0,0,2.568,1.86,6.589,6.589,0,0,1,3.609,3.844,1.762,1.762,0,0,0,3.092.442c1.748-2.387,2.529-6.086,3.355-10.012,1.087-5.141,2.2-10.41,5.37-12.969a18.612,18.612,0,0,0,.075,12.8l.678,1.674c2.008,4.982,3.467,8.574,2.629,11.989a1.773,1.773,0,0,0,3.3,1.219,30.126,30.126,0,0,1,5.509-7.861,45.231,45.231,0,0,0-1.32,8.469,51.175,51.175,0,0,1-1.495,9.5,1.776,1.776,0,0,0,1.7,2.275,1.8,1.8,0,0,0,.99-.3,25.923,25.923,0,0,0,6.771-6.741c5.462-7.881,6.437-18.272,7.308-27.429.807-8.581,1.573-16.681,5.833-20.655a1.762,1.762,0,0,0,.527-1.654A1.785,1.785,0,0,0,232.875,118.736Z" transform="translate(-71.002 -17.626)" fill="url(#linear-gradient)"/>
  </g>
</svg>
