<svg id="Group_381" data-name="Group 381" xmlns="http://www.w3.org/2000/svg" width="30.304" height="30.236" viewBox="0 0 30.304 30.236">
  <g id="Group_380" data-name="Group 380" transform="translate(0 0)">
    <path id="Path_46" data-name="Path 46" d="M29.624,24.308l-4.68-4.681a2.44,2.44,0,0,0-3.441.065L19.146,22.05l-.465-.259a23.463,23.463,0,0,1-5.671-4.1A23.594,23.594,0,0,1,8.9,12.008c-.087-.158-.171-.31-.254-.455l1.582-1.58.778-.779a2.438,2.438,0,0,0,.063-3.441L6.389,1.073a2.438,2.438,0,0,0-3.44.065L1.63,2.464l.036.036A7.627,7.627,0,0,0,.579,4.417,7.948,7.948,0,0,0,.1,6.361c-.618,5.123,1.723,9.805,8.077,16.159,8.782,8.782,15.86,8.118,16.165,8.086a7.908,7.908,0,0,0,1.95-.49,7.6,7.6,0,0,0,1.91-1.082l.029.026,1.336-1.308A2.442,2.442,0,0,0,29.624,24.308Z" transform="translate(0 -0.394)" fill="#fff"/>
  </g>
</svg>
