<svg xmlns="http://www.w3.org/2000/svg" width="31.726" height="27.198" viewBox="0 0 31.726 27.198">
  <g id="comment-black-oval-bubble-shape" transform="translate(0 -36.507)">
    <path id="Path_45" data-name="Path 45" d="M29.6,42.146a14.351,14.351,0,0,0-5.772-4.125,20.58,20.58,0,0,0-7.967-1.514A21.052,21.052,0,0,0,9.7,37.4a17.231,17.231,0,0,0-5.063,2.417,12.077,12.077,0,0,0-3.382,3.62A8.433,8.433,0,0,0,0,47.837a8.591,8.591,0,0,0,1.6,4.975,13,13,0,0,0,4.382,3.895,11.251,11.251,0,0,1-.46,1.345q-.266.637-.478,1.045a7.192,7.192,0,0,1-.576.9q-.363.5-.549.7l-.611.673q-.425.47-.549.611a1.237,1.237,0,0,0-.142.159l-.124.15-.106.159q-.089.133-.08.168a.472.472,0,0,1-.035.177.234.234,0,0,0,.009.213v.018a.89.89,0,0,0,.31.513.694.694,0,0,0,.54.159,13.289,13.289,0,0,0,2.018-.389A19.35,19.35,0,0,0,13.3,59.026a24.221,24.221,0,0,0,2.567.142,20.574,20.574,0,0,0,7.967-1.514A14.349,14.349,0,0,0,29.6,53.529a8.686,8.686,0,0,0,0-11.383Z" transform="translate(0 0)" fill="#fff"/>
  </g>
</svg>
