<svg xmlns="http://www.w3.org/2000/svg" width="43.342" height="54.185" viewBox="0 0 43.342 54.185">
  <g id="Group_378" data-name="Group 378" transform="translate(1092.647 -2008.678)">
    <g id="_304752" data-name="304752" transform="translate(-1092.647 2008.678)">
      <path id="Path_44" data-name="Path 44" d="M1.173-1279.637a1.6,1.6,0,0,0-.94.851l-.089.191-.013,15.056c-.008,10.5,0,15.306.034,15.882a19.2,19.2,0,0,0,.7,4.477A12.017,12.017,0,0,0,4-1237.81c1.321,1.326,2.329,2.016,5.756,3.956.462.263,1.279.746,1.821,1.072a42.641,42.641,0,0,0,3.816,2.109c.911.457,1.787.915,1.948,1.017a9.844,9.844,0,0,1,2.922,3.041c.517.754.784.974,1.313,1.072a1.382,1.382,0,0,0,.809-.093,1.677,1.677,0,0,0,.788-.712,12.885,12.885,0,0,1,4.375-4.091c.415-.241,1.436-.758,2.9-1.474.407-.2,1.156-.61,1.664-.915s1.368-.8,1.906-1.11c1.351-.766,2.533-1.474,3.117-1.859,3.985-2.634,5.815-5.878,6.281-11.16.042-.512.055-3.617.055-16.094v-15.458l-.11-.233a1.528,1.528,0,0,0-1.52-.923,1.8,1.8,0,0,0-1.186.648,7.042,7.042,0,0,1-1.592,1.11,15.582,15.582,0,0,1-7.17,1.537,13.322,13.322,0,0,1-8.708-2.7c-.754-.534-.94-.614-1.376-.614a1.178,1.178,0,0,0-.61.131,4.529,4.529,0,0,0-.572.343,13.282,13.282,0,0,1-6.654,2.736,28.465,28.465,0,0,1-3.663.068,15.329,15.329,0,0,1-5.54-1.385,7.4,7.4,0,0,1-1.9-1.309,3.4,3.4,0,0,0-.618-.47A1.545,1.545,0,0,0,1.173-1279.637Z" transform="translate(-0.128 1279.705)" fill="#1762d5"/>
    </g>
    <text id="C" transform="translate(-1070.729 2044.455)" fill="#fff" font-size="29" font-family="SourceSansPro-Regular, Source Sans Pro"><tspan x="-8.28" y="0">C</tspan></text>
  </g>
</svg>
