<svg xmlns="http://www.w3.org/2000/svg" width="124" height="119.804" viewBox="0 0 124 119.804">
  <g id="crime" transform="translate(0 -8.665)">
    <g id="Group_372" data-name="Group 372" transform="translate(39.331 72.903)">
      <g id="Group_371" data-name="Group 371">
        <path id="Path_36" data-name="Path 36" d="M202.843,276.479l-2.569-2.573L162.4,312.271a17.157,17.157,0,0,0,15.233-4.961,15.857,15.857,0,0,0,2.759-4.453,3.589,3.589,0,0,1,3.882-1.923,32.744,32.744,0,0,0,28.847-9.044,31.751,31.751,0,0,0,5.936-8.368A25.084,25.084,0,0,1,202.843,276.479Z" transform="translate(-162.398 -273.907)" fill="#d5110b"/>
      </g>
    </g>
    <g id="Group_374" data-name="Group 374" transform="translate(0 8.664)">
      <g id="Group_373" data-name="Group 373">
        <path id="Path_37" data-name="Path 37" d="M120.886,44.642a11.164,11.164,0,0,0-15.414,0l-7.707,7.71-9.138-9.138A14.348,14.348,0,0,0,95.2,39.5v0A14.534,14.534,0,1,0,74.638,18.949a14.353,14.353,0,0,0-3.711,6.565l-11.7-11.7a18,18,0,0,0-25.2,0L23.745,24.087a10.891,10.891,0,0,0,0,15.414l.006.005a11.153,11.153,0,0,0,15.3.084c.033-.032.073-.054.1-.086L46.865,31.8,52,36.935c-14.813,14.817-2,2.1-13.725,13.825h0l-1.064,1.064H10.893A10.827,10.827,0,0,0,0,62.624V83.179a10.9,10.9,0,1,0,21.793,0V73.524H35.965L8.324,101.165c-3.637,3.64-4.428,10.982,0,15.414a11.165,11.165,0,0,0,15.421,0L74.639,65.2a3.633,3.633,0,0,1,5.138,0l5.138,5.141a18.617,18.617,0,0,0,25.7,0l10.13-10.276A10.918,10.918,0,0,0,120.886,44.642Z" transform="translate(0 -8.664)" fill="#efa66f"/>
      </g>
    </g>
    <g id="Group_376" data-name="Group 376" transform="translate(57.72 106.668)">
      <g id="Group_375" data-name="Group 375">
        <path id="Path_38" data-name="Path 38" d="M249.229,413.323a10.9,10.9,0,1,0,10.9,10.9A10.912,10.912,0,0,0,249.229,413.323Z" transform="translate(-238.329 -413.323)" fill="#d5110b"/>
      </g>
    </g>
  </g>
</svg>
