<svg xmlns="http://www.w3.org/2000/svg" width="54.754" height="45.084" viewBox="0 0 54.754 45.084">
  <path id="emergency-ambulance" d="M52.794,44.244l-.129-.12c-.079-.073-.158-.145-.234-.221l-12.3-12.3c-.027-.027-.055-.053-.084-.077a5.509,5.509,0,0,0-2.084-1.092V27.425a1.32,1.32,0,0,0-1.32-1.32H30.661a1.32,1.32,0,0,0-1.32,1.32V30.24H3.9a3.9,3.9,0,0,0-3.9,3.9V57.5a1.32,1.32,0,0,0,1.32,1.32H4.766a5.9,5.9,0,0,0,11.506,0H38.89A5.9,5.9,0,0,0,50.4,58.812a4.516,4.516,0,0,0,4.356-4.506V48.773A6.234,6.234,0,0,0,52.794,44.244ZM31.98,28.745h3.343v1.5H31.98v-1.5ZM10.519,60.765A3.264,3.264,0,1,1,13.784,57.5,3.268,3.268,0,0,1,10.519,60.765Zm6.789-18.926a1.32,1.32,0,0,1-1.32,1.32H13.847V45.3a1.32,1.32,0,0,1-1.32,1.32H9.976a1.32,1.32,0,0,1-1.32-1.32V43.158H6.515a1.32,1.32,0,0,1-1.32-1.32V39.288a1.32,1.32,0,0,1,1.32-1.32H8.657V35.827a1.32,1.32,0,0,1,1.32-1.32h2.551a1.32,1.32,0,0,1,1.32,1.32v2.141h2.141a1.32,1.32,0,0,1,1.32,1.32v2.551Zm16.081,1.284a1.164,1.164,0,0,1-1.162-1.162V35.732a.648.648,0,0,1,.647-.647h4.155a1.526,1.526,0,0,1,1.087.45l6.349,6.349a.726.726,0,0,1-.513,1.239ZM44.642,60.765A3.264,3.264,0,1,1,47.907,57.5,3.268,3.268,0,0,1,44.642,60.765ZM33.652,24.654a1.32,1.32,0,0,1-1.32-1.32V19.64a1.32,1.32,0,1,1,2.639,0v3.695A1.319,1.319,0,0,1,33.652,24.654Zm6.407,1.122a1.32,1.32,0,0,1-.933-2.253L41.453,21.2a1.319,1.319,0,0,1,1.866,1.866l-2.328,2.328A1.314,1.314,0,0,1,40.058,25.776Zm-12.193,0a1.315,1.315,0,0,1-.933-.387L24.6,23.061A1.319,1.319,0,1,1,26.471,21.2L28.8,23.523a1.32,1.32,0,0,1-.933,2.253Z" transform="translate(0 -18.32)" fill="#1762d5"/>
</svg>
