<svg xmlns="http://www.w3.org/2000/svg" width="41.119" height="42.335" viewBox="0 0 41.119 42.335">
  <path id="file" d="M34.858,0H6.5V42.335H47.619V10.292ZM16.124,9.878h8.749a.8.8,0,0,1,.875.706.8.8,0,0,1-.875.706H16.124a.8.8,0,0,1-.875-.706A.8.8,0,0,1,16.124,9.878ZM38,33.868H16.124a.722.722,0,1,1,0-1.411H38a.722.722,0,1,1,0,1.411Zm0-5.645H16.124a.722.722,0,1,1,0-1.411H38a.722.722,0,1,1,0,1.411Zm0-5.645H16.124a.722.722,0,1,1,0-1.411H38a.722.722,0,1,1,0,1.411Zm0-5.645H16.124a.8.8,0,0,1-.875-.706.8.8,0,0,1,.875-.706H38a.8.8,0,0,1,.875.706A.8.8,0,0,1,38,16.934Zm-4.374-5.645V1.411l12.248,9.878Z" transform="translate(-6.5)" fill="#1762d5"/>
</svg>
