<svg xmlns="http://www.w3.org/2000/svg" width="116.998" height="116.897" viewBox="0 0 116.998 116.897">
  <g id="flooded-house" transform="translate(0 0)">
    <path id="Path_29" data-name="Path 29" d="M60.425,71.47a7.661,7.661,0,0,0,8.283,0l.13-.088v-26.7H100.7V71.265l.3.205a7.659,7.659,0,0,0,8.283,0l7.915-5.35a14.507,14.507,0,0,1,6.414-2.348V44.811l7.529,6.935,4.893-4.527L84.77,0,33.5,47.218l4.893,4.527,7.529-6.935v18.94A14.542,14.542,0,0,1,52.51,66.12Zm0,0" transform="translate(-26.352)" fill="#728192"/>
    <path id="Path_30" data-name="Path 30" d="M26.481,345.8l7.834,5.35a7.518,7.518,0,0,0,8.2,0l7.834-5.35a14.741,14.741,0,0,1,16.3,0l7.834,5.35a7.515,7.515,0,0,0,8.2,0l7.834-5.35a14.743,14.743,0,0,1,16.3,0L117,352.755V338.7l-.273.348-13.96-9.532a7.513,7.513,0,0,0-8.2,0l-7.835,5.35a14.743,14.743,0,0,1-16.3,0L62.6,329.52a7.515,7.515,0,0,0-8.2,0l-7.835,5.35a14.741,14.741,0,0,1-16.3,0l-7.835-5.35a7.516,7.516,0,0,0-8.2,0L.273,339.051,0,338.7v14.05L10.181,345.8a14.744,14.744,0,0,1,16.3,0Zm0,0" transform="translate(0 -250.609)" fill="#78beff"/>
    <path id="Path_31" data-name="Path 31" d="M102.765,429.991a7.516,7.516,0,0,0-8.2,0l-7.835,5.35a14.742,14.742,0,0,1-16.3,0l-7.834-5.35a7.518,7.518,0,0,0-8.2,0l-7.834,5.35a14.742,14.742,0,0,1-16.3,0l-7.834-5.35a7.518,7.518,0,0,0-8.2,0L.273,439.523,0,439.176v7.36H117v-7.36l-.274.348Zm0,0" transform="translate(0 -329.639)" fill="#78beff"/>
    <path id="Path_32" data-name="Path 32" d="M232.322,254.372l.632.463V239.328H216.328v15.625l.792-.58A12.983,12.983,0,0,1,232.322,254.372Zm0,0" transform="translate(-166.229 -184.091)" fill="#728192"/>
  </g>
</svg>
