<svg xmlns="http://www.w3.org/2000/svg" width="27.721" height="17.617" viewBox="0 0 27.721 17.617">
  <g id="google-plus" transform="translate(0)">
    <g id="Group_386" data-name="Group 386" transform="translate(0 0)">
      <path id="Path_48" data-name="Path 48" d="M19.522,44.265a8.8,8.8,0,0,0,5.938,8.326,8.687,8.687,0,0,0,9.5-2.531,9.956,9.956,0,0,0,1.783-7.043C33.929,42.992,31.12,43,28.316,43c0,1,0,2,0,3,1.682.046,3.364.025,5.046.059a4.866,4.866,0,0,1-2.86,3.334,5.563,5.563,0,1,1-3.747-10.466c1.8-.635,3.663.08,5.206,1.018.782-.732,1.514-1.514,2.233-2.3a8.854,8.854,0,0,0-14.676,6.623Z" transform="translate(-19.517 -35.445)" fill="#dc4e41"/>
      <path id="Path_49" data-name="Path 49" d="M74.978,48.668c-.008.837-.017,1.678-.021,2.515-.841.008-1.678.013-2.515.017v2.506c.837,0,1.678.008,2.515.017.008.837.008,1.673.017,2.515.833,0,1.67,0,2.506,0,0-.841.008-1.678.017-2.519l2.515-.013V51.2c-.837,0-1.678-.008-2.515-.017,0-.837-.013-1.678-.017-2.515Z" transform="translate(-52.29 -43.633)" fill="#dc4e41"/>
      <g id="Group_385" data-name="Group 385">
        <path id="Path_50" data-name="Path 50" d="M19.522,44.265A8.854,8.854,0,0,1,34.2,37.642c-.719.791-1.451,1.573-2.233,2.3-1.544-.938-3.4-1.653-5.206-1.018a5.563,5.563,0,1,0,3.747,10.466,4.867,4.867,0,0,0,2.86-3.334C31.683,46.027,30,46.048,28.319,46c0-1-.008-2,0-3,2.8,0,5.614-.013,8.422.013a9.953,9.953,0,0,1-1.783,7.043,8.686,8.686,0,0,1-9.5,2.531A8.8,8.8,0,0,1,19.522,44.265Z" transform="translate(-19.517 -35.445)" fill="#fff"/>
        <path id="Path_51" data-name="Path 51" d="M74.978,48.668h2.5c0,.837.013,1.678.017,2.515.837.008,1.678.013,2.515.017v2.506l-2.515.013c-.008.841-.013,1.678-.017,2.519-.837,0-1.674,0-2.506,0-.008-.841-.008-1.678-.017-2.515-.837-.009-1.678-.013-2.515-.017V51.2q1.255-.006,2.515-.017C74.961,50.346,74.969,49.5,74.978,48.668Z" transform="translate(-52.29 -43.633)" fill="#fff"/>
      </g>
    </g>
  </g>
</svg>
