<svg xmlns="http://www.w3.org/2000/svg" width="24.289" height="24.234" viewBox="0 0 24.289 24.234">
  <g id="Group_399" data-name="Group 399" transform="translate(1.206 -6.792)">
    <g id="Group_380" data-name="Group 380" transform="translate(-1.206 6.792)">
      <path id="Path_46" data-name="Path 46" d="M23.744,19.561,19.993,15.81a1.956,1.956,0,0,0-2.758.052l-1.89,1.889-.373-.207a18.806,18.806,0,0,1-4.545-3.288A18.91,18.91,0,0,1,7.133,9.7c-.07-.127-.137-.248-.2-.364L8.2,8.072l.624-.624a1.954,1.954,0,0,0,.05-2.758L5.121.938A1.954,1.954,0,0,0,2.363.99L1.306,2.053l.029.029A6.113,6.113,0,0,0,.464,3.618,6.37,6.37,0,0,0,.076,5.177c-.5,4.106,1.381,7.859,6.473,12.951,7.039,7.039,12.711,6.507,12.956,6.481a6.338,6.338,0,0,0,1.563-.393,6.092,6.092,0,0,0,1.531-.867l.023.021,1.071-1.049A1.958,1.958,0,0,0,23.744,19.561Z" transform="translate(0 -0.394)" fill="#fff"/>
    </g>
  </g>
</svg>
