<svg xmlns="http://www.w3.org/2000/svg" width="19.688" height="18.813" viewBox="0 0 19.688 18.813">
  <g id="linkedin" transform="translate(0)">
    <g id="Group_387" data-name="Group 387" transform="translate(0 0)">
      <path id="Path_53" data-name="Path 53" d="M46.756,35.5v7.28H42.535V35.99c0-1.705-.609-2.87-2.138-2.87a2.309,2.309,0,0,0-2.165,1.543,2.889,2.889,0,0,0-.14,1.029v7.09H33.872s.057-11.5,0-12.694h4.221v1.8c-.008.014-.02.028-.028.042h.028v-.042a4.191,4.191,0,0,1,3.8-2.1c2.777,0,4.859,1.814,4.859,5.713Zm-17.3-11.534a2.2,2.2,0,1,0-.055,4.387h.027a2.2,2.2,0,1,0,.028-4.387ZM27.319,42.782h4.219V30.088H27.319Z" transform="translate(-27.068 -23.969)" fill="#fff"/>
    </g>
  </g>
</svg>
