<svg xmlns="http://www.w3.org/2000/svg" width="131.578" height="132.666" viewBox="0 0 131.578 132.666">
  <g id="_229884e26702bd5ae0d4352c2cf3ac0a" data-name="229884e26702bd5ae0d4352c2cf3ac0a" transform="translate(-10.006 -5.942)">
    <g id="Group_370" data-name="Group 370" transform="translate(10.006 5.942)">
      <path id="Path_24" data-name="Path 24" d="M146.593-504.658a11.793,11.793,0,0,0-8.715,13.185,11.858,11.858,0,0,0,15.419,9.581,11.99,11.99,0,0,0,8.045-13.241A11.962,11.962,0,0,0,146.593-504.658Z" transform="translate(-120.606 505.058)" fill="#ffb69e"/>
      <path id="Path_25" data-name="Path 25" d="M522.165-393.654c-1.955.391-2.291,2.011-2.513,11.816-.14,6.592-.112,8.156.223,8.939.223.587,2.709,3.213,6.285,6.676l5.894,5.726-7.458,13.269c-5.085,9.022-8.185,14.218-9.692,16.258a74.89,74.89,0,0,0-9.749,17.039,136.575,136.575,0,0,0-4.637,16.481c-.783,3.436-1.676,7.094-2.011,8.185-.726,2.513-.755,4.553-.028,5.783a4.234,4.234,0,0,0,3.6,2.179c2.29,0,2.43-.251,8.213-15.084l5.139-13.269,9.832-10,9.833-10,8.716-13.464c6.313-9.749,8.771-13.743,8.855-14.5.251-1.788-.308-2.6-3.24-4.609-1.481-1.034-5.419-3.883-8.771-6.313l-6.118-4.468.168-1.7c.559-5.951.755-10.811.447-11.76a2.927,2.927,0,0,0-2.654-2.094c-1.7,0-2.542,1.732-3.8,7.905-.5,2.4-.951,4.358-.977,4.3-.056-.056-.587-3.24-1.2-7.068-1.173-7.262-1.341-8.045-2.262-9.33A1.85,1.85,0,0,0,522.165-393.654Z" transform="translate(-432.434 408.663)" fill="#414b82"/>
      <path id="Path_26" data-name="Path 26" d="M833.508-356.83a13.007,13.007,0,0,0-5.168,3.519,15.528,15.528,0,0,0-1.536,2.6c-.67,1.4-.755,1.928-.755,4.526,0,2.766.056,3.073.894,4.777a11.785,11.785,0,0,0,5.615,5.364,7.263,7.263,0,0,0,4.386.866,9.774,9.774,0,0,0,6.509-1.983,10.5,10.5,0,0,0,4.609-9.022,10.566,10.566,0,0,0-4.413-9.022A11.8,11.8,0,0,0,833.508-356.83Z" transform="translate(-716.486 377.175)" fill="#ffb69e"/>
      <path id="Path_27" data-name="Path 27" d="M26.55-314.29c-3.966.391-5.558,1.173-8.268,4.106-2.681,2.877-4.581,7.235-5.419,12.458a78.36,78.36,0,0,0-.14,14.554,113.961,113.961,0,0,0,3.883,18.688c.447,1.4,2.123,7.709,3.771,14L23.4-239.007,17.11-227.443c-3.939,7.235-6.481,12.235-6.788,13.3a5.9,5.9,0,0,0,.475,5,5.767,5.767,0,0,0,3.492,1.815c2.039,0,4.609-2.123,8.017-6.649,5.726-7.6,15.42-21.2,15.726-22.1.642-1.787.447-3.519-1.034-8.8-.755-2.766-1.536-5.419-1.676-5.866a2.167,2.167,0,0,1-.168-.922c.056-.056,1.9,2.039,4.106,4.637l4.023,4.721-.056,1.788c-.056.977-.336,7.011-.643,13.409-.53,10.726-.53,11.788-.14,13.381.5,1.955,1.285,3.156,2.347,3.715,2.849,1.425,5.336.251,6.817-3.157.838-1.955,1.4-4.664,3.994-18.883,2.179-11.928,2.347-13.241,2.094-14.554-.419-1.983-1.006-2.766-7.57-10.224-3.157-3.575-5.977-6.928-6.23-7.4A42.913,42.913,0,0,1,40.21-278l-.168-2.654,1.676,2.234a15.328,15.328,0,0,0,2.57,2.766c1.815,1.062,5,.447,6.09-1.2.977-1.4,7.626-15.615,7.766-16.537a3.909,3.909,0,0,0-1.621-3.408,3.963,3.963,0,0,0-3.938-.111,30.363,30.363,0,0,0-3.547,4.245,39.052,39.052,0,0,1-2.989,3.771,6.737,6.737,0,0,1-1.285-1.536l-1.034-1.508.559-2.039a24.772,24.772,0,0,0,.755-4.637c.083-1.4.2-2.57.223-2.57.056,0,2.626.391,5.754.866s6.257.838,6.956.838,6.732-.783,13.409-1.7c8.575-1.2,12.4-1.843,12.989-2.207a4.206,4.206,0,0,0,2.094-3.8,4.087,4.087,0,0,0-2.513-3.966l-1.257-.615-12.347.838-12.347.838-11.4-1.7c-6.257-.922-12.262-1.872-13.352-2.094A21.222,21.222,0,0,0,26.55-314.29Z" transform="translate(-10.006 339.998)" fill="#ed694a"/>
      <path id="Path_28" data-name="Path 28" d="M650.922,156.444c-3.492,3.8-6.592,7.347-6.872,7.877-.475.949-.475.949.419,3.073.5,1.173,2.151,4.692,3.659,7.821,5.168,10.783,7.1,13.939,9.19,14.917a3.564,3.564,0,0,0,4.023-.53c.67-.643.726-.894.7-2.877-.028-2.039-.2-2.626-3.855-12.319-2.094-5.587-3.8-10.336-3.8-10.558s.7-3.436,1.536-7.151c.866-3.687,1.509-6.816,1.481-6.956C657.346,149.628,654.441,152.644,650.922,156.444Z" transform="translate(-558.648 -61.823)" fill="#414b82"/>
    </g>
  </g>
</svg>
