<svg id="Group_398" data-name="Group 398" xmlns="http://www.w3.org/2000/svg" width="29.647" height="23.294" viewBox="0 0 29.647 23.294">
  <path id="Path_60" data-name="Path 60" d="M2.846,62q.563.4,3.392,2.358t4.335,3.019q.165.116.7.5t.893.629q.356.24.86.538a4.991,4.991,0,0,0,.951.446,2.622,2.622,0,0,0,.827.149h.033a2.624,2.624,0,0,0,.827-.149,5,5,0,0,0,.951-.446q.5-.3.86-.538t.893-.629q.538-.389.7-.5Q20.6,66.318,26.818,62a7.859,7.859,0,0,0,2.018-2.035,4.369,4.369,0,0,0,.811-2.5A2.67,2.67,0,0,0,27,54.82H2.647a2.363,2.363,0,0,0-1.96.86A3.339,3.339,0,0,0,0,57.831a3.864,3.864,0,0,0,.91,2.258A8.212,8.212,0,0,0,2.846,62Z" transform="translate(0 -54.82)" fill="#fff"/>
  <path id="Path_61" data-name="Path 61" d="M27.993,185.876q-5.426,3.672-8.239,5.708-.943.695-1.53,1.084a9.445,9.445,0,0,1-1.563.794,4.76,4.76,0,0,1-1.82.405h-.033a4.762,4.762,0,0,1-1.82-.405,9.45,9.45,0,0,1-1.563-.794q-.587-.389-1.53-1.084-2.234-1.638-8.222-5.708A8.763,8.763,0,0,1,0,184.437v13.136a2.548,2.548,0,0,0,.778,1.87,2.549,2.549,0,0,0,1.87.778H27a2.655,2.655,0,0,0,2.647-2.647V184.437A9.124,9.124,0,0,1,27.993,185.876Z" transform="translate(0 -176.926)" fill="#fff"/>
</svg>
