<svg xmlns="http://www.w3.org/2000/svg" width="101.016" height="134.116" viewBox="0 0 101.016 134.116">
  <g id="noun_Sexual_Assault_1466037" data-name="noun_Sexual Assault_1466037" transform="translate(-55.987 -1.603)">
    <path id="Path_9" data-name="Path 9" d="M238.973,76.346a10.163,10.163,0,1,1,11.861-7.989,10.129,10.129,0,0,1-11.861,7.989" transform="translate(-120.005 -37.474)" fill="#ffb69e"/>
    <path id="Path_10" data-name="Path 10" d="M110.835,60.64h0l-.018.01c-1.5.921-9.216,4.1-17.861-4.01a24.882,24.882,0,0,1-5.117-8.9s3.695,1.661,6.574.552a12.667,12.667,0,0,0,4.261-3.556A9.951,9.951,0,0,1,102,42.276a10.2,10.2,0,0,1,8.837,18.364Z" transform="translate(-21.854 -27.292)" fill="#ffb69e"/>
    <g id="Group_368" data-name="Group 368" transform="translate(55.987 37.357)">
      <path id="Path_11" data-name="Path 11" d="M94.494,160.392a7.225,7.225,0,0,1,2.333-9.945l2.926-1.814a89.379,89.379,0,0,0-5.106-19.181h2.778l5.48,17.227,7.253-4.5-5.725-17.722c-.921-3.229-4.438-8.954-11.507-8.954H76.9c-7.068,0-10.585,5.725-11.506,8.954l-9.148,28.317c-1.788,6.088,6.02,8.419,7.863,2.74l8.293-26.064h2.777a90.732,90.732,0,0,0-6.1,30.338c-.2,10.6,6.046,49.884,6.046,49.884.5,5.456,7.7,5.469,7.873,0L83,166.707h3.838l-.007,42.965c.171,5.469,7.368,5.456,7.872,0,0,0,5.048-31.754,5.92-45.865A7.215,7.215,0,0,1,94.494,160.392Z" transform="translate(-55.987 -115.504)" fill="#5f6e9b"/>
    </g>
    <path id="Path_12" data-name="Path 12" d="M242.1,145.652l-15.282-27.087a8.982,8.982,0,0,0-12.98-1.29,11.712,11.712,0,0,0-3.223,4L200.8,141.986l-16.212,10.051a5.023,5.023,0,1,0,5.294,8.538l16.825-10.387a10.246,10.246,0,0,0,2.538-2.563l6.078-10.239,13.106,22.282-.042,45.259c.069,6.833,5.29,8.6,7.454,8.657,3.561.087,7.731-2.345,7.761-8.079l0-53.832A10.81,10.81,0,0,0,242.1,145.652Z" transform="translate(-86.602 -77.867)" fill="#4397aa"/>
    <path id="Path_13" data-name="Path 13" d="M153.535,10.454h-2.124V1.6h2.124Z" transform="translate(-65.47 0)" fill="#e81610"/>
    <path id="Path_14" data-name="Path 14" d="M175.287,19.118,173.708,17.7l6.373-7.081,1.579,1.422Z" transform="translate(-80.768 -6.184)" fill="#e81610"/>
    <path id="Path_15" data-name="Path 15" d="M187.7,46.653l-.625-2.03,9.2-2.832.625,2.03Z" transform="translate(-89.936 -27.573)" fill="#e81610"/>
  </g>
</svg>
