<svg xmlns="http://www.w3.org/2000/svg" width="24.441" height="19.863" viewBox="0 0 24.441 19.863">
  <path id="Path_54" data-name="Path 54" d="M49.544,36.379a10,10,0,0,1-2.88.789,5.028,5.028,0,0,0,2.205-2.774,10.038,10.038,0,0,1-3.184,1.216,5.019,5.019,0,0,0-8.545,4.574A14.234,14.234,0,0,1,26.8,34.945a5.02,5.02,0,0,0,1.552,6.695,4.979,4.979,0,0,1-2.271-.628c0,.021,0,.043,0,.064a5.017,5.017,0,0,0,4.023,4.916,5.034,5.034,0,0,1-2.264.087,5.02,5.02,0,0,0,4.684,3.482A10.122,10.122,0,0,1,25.1,51.637,14.26,14.26,0,0,0,47.056,39.623c0-.217,0-.434-.015-.648a10.169,10.169,0,0,0,2.5-2.6Z" transform="translate(-25.103 -34.028)" fill="#fff"/>
</svg>
