<svg xmlns="http://www.w3.org/2000/svg" width="104.332" height="138.797" viewBox="0 0 104.332 138.797">
  <g id="noun_Man_Destroying_Toilet_637607" data-name="noun_Man Destroying Toilet_637607" transform="translate(-53.421 -66.558)">
    <g id="Group_367" data-name="Group 367" transform="translate(53.421 66.558)">
      <path id="Path_5" data-name="Path 5" d="M0,127.487V184.6H45.516l4.028-19.334s12.688-2.215,12.688-11.782v-4.834H43.8l-4.518,5.53.4,5.337-5.438-4.834,3.122-2.719-1.333-3.315H21.449s-3.826-.906-3.826-3.852V127.487A3.625,3.625,0,0,0,14,123.862H3.625A3.625,3.625,0,0,0,0,127.487Z" transform="translate(0 -46.301)" fill="#eae9e8"/>
      <circle id="Ellipse_2" data-name="Ellipse 2" cx="13.591" cy="13.591" r="13.591" transform="translate(66.019 6.165) rotate(-13.109)" fill="#ffb69e"/>
      <path id="Path_6" data-name="Path 6" d="M112.426,112.326a40.067,40.067,0,0,1,.315-5.024c3.974-2.471,6.1-7.885,6.056-13.44a63.549,63.549,0,0,1,5.637-27.188A16.14,16.14,0,0,0,121.151,48.5c-4.812-4.718-13.258-3.348-17.635,5.179-.39.77-.765,1.549-1.132,2.334.784-.335,1.538-.692,2.239-1.062a32.694,32.694,0,0,0,5.137-3.3h0a5.437,5.437,0,0,1,6.978,8.34,41.923,41.923,0,0,1-6.7,4.4,36.775,36.775,0,0,1-12.373,4.166A88.389,88.389,0,0,0,94.6,84.63L86.83,80.112a7.538,7.538,0,0,0-9.068,1.118L58.126,100.363a7.553,7.553,0,1,0,10.542,10.819L84.195,96.052l13.747,8a55.877,55.877,0,0,0-.621,8.274c-.054,10.75,3.295,25.626,15.99,39.43a7.553,7.553,0,0,0,11.144-10.2C114.558,130.678,112.479,120.226,112.426,112.326Z" transform="translate(-22.104 -15.411)" fill="#00b579"/>
      <path id="Path_7" data-name="Path 7" d="M37.3,109.5l-6.177,4.732a.906.906,0,0,0,.443,1.619l8.761,1.057a.848.848,0,0,0,.111.007.906.906,0,0,0,.108-1.8l-6.554-.791,5.334-4.086a.907.907,0,0,0,.013-1.43l-8.95-7.11,8.978.117a.908.908,0,0,0,.842-1.272l-4.157-9.462,8.5,4.206a.907.907,0,0,0,1.3-.718l1.084-10.354L52.355,93.5a.905.905,0,0,0,1.518.072l4.777-6.646.674,6.966a.906.906,0,1,0,1.8-.173h0l-.906-9.364a.906.906,0,0,0-1.639-.442l-5.366,7.468L47.114,80.9a.906.906,0,0,0-1.684.362L44.192,93.079l-9.569-4.736a.907.907,0,0,0-1.232,1.177l4.594,10.457-10.223-.132a.907.907,0,0,0-.576,1.617Z" transform="translate(-10.625 -29.118)" fill="#a09d9c"/>
      <path id="Path_8" data-name="Path 8" d="M104.08,59.621a14.041,14.041,0,0,1-7.5-2.066A22.143,22.143,0,0,1,89.09,49.2a4.231,4.231,0,0,0-7.368,4.16A30.5,30.5,0,0,0,92.19,64.786a22.664,22.664,0,0,0,11.82,3.294h.069a27.52,27.52,0,0,0,4-.317A35.644,35.644,0,0,0,119.5,63.812a41.2,41.2,0,0,0,6.491-4.261,4.23,4.23,0,0,0-5.4-6.513,33.563,33.563,0,0,1-5.377,3.469,31.276,31.276,0,0,1-3.533,1.59,21.769,21.769,0,0,1-7.511,1.523h-.088Z" transform="translate(-32.129 -15.897)" fill="#00b579"/>
    </g>
  </g>
</svg>
