<svg id="woman-with-headset" xmlns="http://www.w3.org/2000/svg" width="44.19" height="45.291" viewBox="0 0 44.19 45.291">
  <path id="Path_64" data-name="Path 64" d="M26.063,23.863a2.269,2.269,0,1,1-2.269-2.269A2.269,2.269,0,0,1,26.063,23.863Zm9.21-2.269a2.269,2.269,0,1,0,2.269,2.269A2.269,2.269,0,0,0,35.272,21.594Zm9.692,9.236v-.258a19.989,19.989,0,0,1-.908,2.169,13.47,13.47,0,0,0,.371,1.705A11.294,11.294,0,0,0,49.8,38.2a6.158,6.158,0,0,1-3.284.409A9.8,9.8,0,0,0,51.1,41.823C46.25,46.2,38.255,46.294,32.666,42.9a10.355,10.355,0,0,1-6.267,0c-5.589,3.4-13.584,3.3-18.436-1.074a9.792,9.792,0,0,0,4.65-3.3,6.208,6.208,0,0,1-2.634-.468,11.723,11.723,0,0,0,4.305-2.547,13.512,13.512,0,0,0,.725-2.773,19.963,19.963,0,0,1-.908-2.169v.259H11.358a3.92,3.92,0,0,1-3.92-3.92V22.6a3.919,3.919,0,0,1,2.055-3.449c.041-6.122,1.825-10.9,5.311-14.209C18.261,1.663,23.217,0,29.533,0S40.8,1.663,44.262,4.941c3.486,3.305,5.27,8.087,5.311,14.209A3.919,3.919,0,0,1,51.628,22.6V26.91a3.92,3.92,0,0,1-3.92,3.92H44.964Zm-1.633-6.953c0-1.009-.052-1.956-.128-2.875-1.769-1.618-5-2.838-9.084-3.269a4.921,4.921,0,0,1,1.5,2.459c-2.372-1.734-7.344-2.271-9-4.129h0c-2.629-1.74-3.318-4.232-3.341-3.2-.106,4.947-3.613,8.8-7.506,9.348-.025.544-.045,1.093-.045,1.667a17.75,17.75,0,0,0,.922,5.714c2.187,2.638,5.8,3.383,9,3.581a4.087,4.087,0,0,1,3.476-1.6c2.1,0,3.807,1.21,3.807,2.7s-1.7,2.7-3.807,2.7a4,4,0,0,1-3.547-1.727A18.743,18.743,0,0,1,18.7,33.7c3.079,4.538,7.851,6.937,10.831,6.937C34.216,40.639,43.331,34.723,43.331,23.877Zm2.373-5.2h1.508C46.963,8,40.866,2.352,29.533,2.352S12.1,8,11.853,18.678h1.508a18.823,18.823,0,0,1,3.486-8.839c2.82-3.628,7.088-5.468,12.685-5.468S39.4,6.211,42.218,9.839A18.824,18.824,0,0,1,45.7,18.678Z" transform="translate(-7.438)" fill="#1762d5"/>
</svg>
